<?xml version="1.0" standalone="no"?>
<!DOCTYPE svg PUBLIC "-//W3C//DTD SVG 20010904//EN"
 "http://www.w3.org/TR/2001/REC-SVG-20010904/DTD/svg10.dtd">
<svg version="1.0" xmlns="http://www.w3.org/2000/svg"
 width="371.000000pt" height="371.000000pt" viewBox="0 0 371.000000 371.000000"
 preserveAspectRatio="xMidYMid meet">
<metadata>
Created by potrace 1.14, written by Peter Selinger 2001-2017
</metadata>
<g transform="translate(0.000000,371.000000) scale(0.100000,-0.100000)"
fill="#000000" stroke="none">
<path d="M2215 3380 c-22 -24 -23 -65 -2 -88 15 -16 14 -25 -12 -107 l-27 -90
-95 3 c-123 5 -229 -18 -333 -70 -95 -48 -158 -99 -221 -179 l-46 -59 -67 0
c-83 0 -238 -25 -294 -47 -150 -58 -203 -163 -142 -279 56 -107 185 -207 404
-311 69 -33 157 -70 195 -83 39 -12 72 -24 73 -26 2 -1 -2 -18 -9 -38 -10 -29
-10 -38 2 -52 25 -31 208 -146 226 -142 9 2 31 21 48 44 16 22 39 53 50 68 18
24 23 26 52 17 18 -5 77 -17 130 -25 54 -9 113 -19 131 -22 23 -3 32 -10 32
-24 0 -10 4 -22 10 -25 6 -4 5 -13 -2 -25 -9 -14 -9 -22 2 -35 12 -14 9 -21
-23 -50 -42 -39 -57 -71 -57 -121 0 -120 134 -187 204 -103 32 38 40 67 33
127 -4 37 -12 53 -41 79 -20 18 -44 33 -55 33 -14 0 -18 5 -14 19 3 10 0 22
-6 25 -6 4 -8 18 -5 32 3 13 1 31 -5 38 -7 8 -8 16 -4 18 4 2 62 1 128 -2 295
-13 493 36 562 139 48 71 23 179 -62 270 -47 50 -179 144 -248 177 -25 12 -39
26 -43 44 -6 33 -40 169 -49 195 -6 20 -1 20 195 20 182 0 203 2 215 18 7 10
11 27 8 37 -5 19 -22 24 -92 32 -30 4 -45 39 -26 65 11 15 32 19 151 23 118 4
138 7 148 23 9 15 7 22 -13 38 -22 18 -41 19 -300 19 -292 0 -301 -1 -301 -46
0 -28 17 -34 100 -34 76 0 93 -11 88 -57 l-3 -28 -114 -3 c-109 -3 -114 -2
-129 20 -63 90 -181 182 -283 219 -32 12 -59 27 -59 33 0 6 7 51 16 99 12 63
21 90 33 94 53 19 69 79 29 107 -30 22 -61 20 -83 -4z"/>
<path d="M3304 2956 c-15 -39 21 -80 54 -60 21 14 28 54 10 65 -21 14 -58 10
-64 -5z"/>
<path d="M166 1974 c-9 -8 -16 -22 -16 -29 0 -19 28 -45 49 -45 38 0 55 48 27
76 -19 18 -41 18 -60 -2z"/>
<path d="M320 1975 c-10 -12 -10 -21 -2 -40 11 -25 13 -25 145 -25 140 0 157
-5 157 -45 0 -31 -19 -45 -60 -45 -46 0 -72 -25 -59 -57 l8 -23 293 0 c276 0
294 1 305 19 9 15 8 23 -3 40 -14 20 -23 21 -178 21 -145 0 -165 2 -179 18
-22 24 -21 35 1 55 13 12 37 17 84 17 81 0 98 6 98 34 0 45 -8 46 -311 46
-245 0 -288 -2 -299 -15z"/>
<path d="M1363 1912 c-6 -4 -13 -13 -15 -21 -2 -7 -12 -23 -23 -35 -12 -12
-28 -55 -40 -104 -17 -78 -17 -85 -2 -118 l17 -35 30 18 c28 16 50 61 50 102
0 11 3 11 15 1 8 -7 15 -11 16 -9 9 32 6 93 -6 115 -9 19 -11 33 -4 45 6 13 4
22 -7 33 -18 18 -16 18 -31 8z"/>
<path d="M1656 1666 c-27 -30 -231 -334 -239 -359 -14 -37 13 -66 132 -147 86
-57 119 -84 115 -95 -8 -20 -7 -20 -70 20 -59 38 -74 42 -74 22 0 -14 278
-206 311 -214 39 -10 18 23 -36 57 -58 37 -59 38 -47 58 6 9 41 -9 127 -68 66
-44 129 -80 141 -80 34 0 56 25 165 185 130 192 136 204 118 241 -18 35 -561
404 -597 404 -12 0 -33 -11 -46 -24z"/>
<path d="M980 1210 c-10 -19 -13 -19 -33 -5 -12 8 -29 15 -38 15 -22 0 -121
-147 -117 -174 3 -20 67 -70 180 -141 71 -44 79 -41 142 54 52 79 54 90 26
116 -15 14 -17 22 -9 37 15 29 7 42 -54 82 -62 41 -82 44 -97 16z"/>
<path d="M2341 853 l-22 -18 21 -180 c11 -99 23 -188 26 -197 7 -22 30 -28 79
-20 38 7 40 9 43 47 5 56 -28 357 -40 373 -15 18 -82 15 -107 -5z"/>
</g>
</svg>
